<svg viewBox="0 0 786 262" xmlns="http://www.w3.org/2000/svg">
<g fill="currentColor" fill-rule="nonzero"><path
      d="M126.7 222c0 28.7-31.3 36.9-49.9 36.9-20.2 0-27.8-.7-36.2-.7-6.8 0-12.7.5-19 .5-13.9 0-21.6-2.8-21.6-10.6 0-5.4 4.9-8.2 7.1-9.6 3.8-2.4 3.8-4 3.8-8.7v-68.7c0-4.7 0-6.3-3.8-8.7C4.8 151 0 148 0 142.8c0-7.8 7.7-10.6 21.6-10.6 6.1 0 12.5.3 18.6.3 11.3 0 25.1-.7 33.8-.7 23 0 45.4 8.2 45.4 32 0 15.7-10.1 22.8-18.1 26.5 10.4 2 25.4 11.9 25.4 31.7zm-69.8-60.9V186c1.7.2 3.3.2 4.4.2 11 0 14.8-7.7 14.8-17.2 0-10.3-4.2-17.9-12-17.9-2.4 0-5 .5-6.1 2.3-1.1 1.6-1.1 4-1.1 7.7zM80 221.8c0-12-6.6-18.6-17.6-18.6-1.6 0-3.7.2-5.6.3v24.7c0 3.1 0 6.3 1.2 8.4 1.2 2.3 4 3.1 7.7 3.1 8.6.1 14.3-6.7 14.3-17.9zm168.3 20.9c0 3.1-1.4 5.4-4.7 7.8-8.9 6.4-25.8 9.9-34.1 9.9-11 0-11.7-6.4-11.7-18.8-5.4 10.6-15.7 19.5-31 19.5-17.6 0-27.3-12.2-27.3-32.2v-31.3c0-4-1.6-5.7-3.1-7-2.3-1.9-4.5-4.2-4.5-8 0-3.1 1.4-5.7 4.9-7.8 9-5.2 25.6-7.7 33.9-7.7 11.5 0 11.7 7 11.7 20.7V211.1c0 15.3 1.9 22.1 7.8 22.1 5 0 7.5-4.2 7.7-18.8v-16.7c0-3.5-1.4-5.2-3.8-7.1-2.3-1.7-4.7-4.4-4.7-8 0-3 1.6-5.9 5-7.8 9.2-5.2 26.3-7.7 34.6-7.7 11.5 0 11.7 7 11.7 20.7v39.8c0 4 1.6 5.7 3.1 7 2.3 2 4.5 4.3 4.5 8.1zm119.7 0c0 3.1-1.4 5.4-4.7 7.8-8.5 6.3-24.7 9.9-32.7 9.9-10.6 0-11.5-6.1-11.7-17.6-5.7 10.1-16.4 17.7-29.4 17.7-20.4 0-34.6-18.8-34.6-45.9 0-31.5 18.8-48.2 43.7-48.2 7.8 0 14.3 1.7 19 4.2v-6.3c0-5.2-3.1-7.3-5.7-9-3.5-2.3-6.8-4.7-6.8-9.2 0-3.1 1.6-5.7 5.2-8 10.1-6.3 28.7-10.1 37.8-10.1 12.2 0 12.4 7.1 12.4 21.1v78.7c0 4 1.6 5.7 3.1 7 2.2 1.7 4.4 4.1 4.4 7.9zm-49.9-33.9c0-19.5-3.3-26.3-9.4-26.3-5.9 0-9.6 6.3-9.6 26.3s3.7 26.5 9.4 26.5c6.5-.1 9.6-7.9 9.6-26.5zm169.1 33.9c0 3.1-1.4 5.4-4.7 7.8-8.5 6.3-24.7 9.9-32.7 9.9-10.6 0-11.5-6.1-11.7-17.6-5.7 10.1-16.4 17.7-29.4 17.7-20.4 0-34.6-18.8-34.6-45.9 0-31.5 18.8-48.2 43.7-48.2 7.8 0 14.3 1.7 19 4.2v-6.3c0-5.2-3.1-7.3-5.7-9-3.5-2.3-6.8-4.7-6.8-9.2 0-3.1 1.6-5.7 5.2-8 10.1-6.3 28.7-10.1 37.8-10.1 12.2 0 12.4 7.1 12.4 21.1v78.7c0 4 1.6 5.7 3.1 7 2.2 1.7 4.4 4.1 4.4 7.9zm-49.9-33.9c0-19.5-3.3-26.3-9.4-26.3-5.9 0-9.6 6.3-9.6 26.3s3.7 26.5 9.4 26.5c6.5-.1 9.6-7.9 9.6-26.5zm249.9 19.5c0 4.9-2.1 10.4-6.1 15.5-7.1 9.4-20.7 17.4-39.3 17.4-27.5 0-46.8-19-46.8-45.4 0-28.5 21.9-49.2 50.3-49.2 27.1 0 41.4 17.7 41.4 31.5 0 9.4-5.9 14.4-17.1 14.4H633c3.1 9 11 14.3 22.4 14.3 7.1 0 12.5-1.6 17.8-4.5 2.4-1.4 4.9-2.4 7.3-2.4 3.9-.2 6.7 2.5 6.7 8.4zm-55.9-26.5l7.5-.5c10.8-.7 15.1-4.7 15.1-10.3 0-4.7-3.1-8.4-8.7-8.4-8.2.1-13.9 8.3-13.9 19.2zM786 229c0 18.6-17.1 32-39.8 32-8.7 0-17.4-1.7-24.4-5.6-1.2 3.7-4.2 5.9-8.5 5.9-11.1 0-19.3-14.6-19.3-26.1 0-7.8 4.4-11.7 9-11.7 4.9 0 7.8 3.3 11.1 7.1 8.7 10.3 16.5 13.7 22.3 13.7 5 0 7.3-2.4 7.3-5.4 0-3.5-3-5.4-13.9-9.4-18.1-6.6-34.1-13.4-34.1-31 0-19.3 17.1-32.7 39.7-32.7 8 0 16.7 1.7 23.5 5.6 1.2-3.7 4.2-5.9 8-5.9 9.2 0 17.2 13.2 17.2 23.3 0 8.2-5.2 10.8-9.4 10.8-4.4 0-7.3-2.8-11.1-6.8-6.1-7.1-13.6-10.4-19-10.4-4.9 0-7.1 2.3-7.1 5 0 3.3 2.6 5.2 13.4 8.5 14.7 4.7 35.1 12.5 35.1 33.1zm-243.4 14.2s-10 23-29.3 16.2c-16.4-5.8-16.8-27.7-2.5-40.9 20.4-18.8 31.8-31.3 31.8-31.3s11.4 12.5 31.8 31.3c14.3 13.2 13.9 35.1-2.5 40.9-19.3 6.8-29.3-16.2-29.3-16.2zm0-115.2c-7.4 0-13.4 9.8-13.4 21.9 0 12.1 6 21.9 13.4 21.9S556 162 556 149.9c0-12.1-6-21.9-13.4-21.9zm-38.2 22c-7.3 1.2-11.7 11.8-9.8 23.8 1.9 11.9 9.4 20.7 16.7 19.5 7.3-1.2 11.7-11.8 9.8-23.8-1.9-11.9-9.4-20.7-16.7-19.5zm59.3 19.5c-1.9 11.9 2.4 22.6 9.8 23.8 7.4 1.2 14.8-7.5 16.7-19.5 1.9-11.9-2.4-22.6-9.8-23.8-7.2-1.2-14.7 7.6-16.7 19.5zM211.91 40.524l-15.566 4.617-2.892-9.748 41.195-12.218 2.891 9.748-15.566 4.617 13.43 45.282-10.062 2.985zM273.032 14.352l10.327-1.874 4.056 22.35 25.818-4.686-4.055-22.35 10.327-1.873 10.25 56.477-10.328 1.874-4.437-24.446-25.818 4.685 4.437 24.447-10.328 1.874zM365.624 1.845L402.333.426l.393 10.16-25.975 1.005.472 12.209 20.157-.78.393 10.16-20.157.78.567 14.667 26.794-1.036.393 10.16-37.528 1.451zM446.178 2.697l20.868 2.28c6.086.665 10.723 2.642 13.911 5.932 3.188 3.29 4.47 7.789 3.846 13.495-.433 3.967-1.63 7.122-3.59 9.465-1.961 2.343-4.573 4.106-7.837 5.29l10.261 25.371-11.656-1.273-8.69-22.396-.407-.044-10.19-1.113-2.315 21.194-10.434-1.14 6.233-57.06zm15.131 29.121c7.663.837 11.832-1.842 12.51-8.037.326-2.989-.296-5.352-1.866-7.091-1.57-1.739-4.311-2.822-8.224-3.25l-8.07-.88-2.012 18.422 7.662.836zM548.15 66.43l-20.156-5.568-8.209 11.854-9.8-2.707 34.965-49.89 9.563 2.641 4.397 60.765-9.801-2.708-.96-14.387zm-.717-9.725l-1.418-21.66-12.414 17.838 13.832 3.822z"
    /></g></svg>
